<?xml version="1.0" encoding="utf-8"?>
<!-- Generator: Adobe Illustrator 16.0.0, SVG Export Plug-In . SVG Version: 6.00 Build 0)  -->
<!DOCTYPE svg PUBLIC "-//W3C//DTD SVG 1.1//EN" "http://www.w3.org/Graphics/SVG/1.1/DTD/svg11.dtd">
<svg version="1.1" id="Layer_1" xmlns="http://www.w3.org/2000/svg" xmlns:xlink="http://www.w3.org/1999/xlink" x="0px" y="0px"
	 width="142px" height="48px" viewBox="0 0 142 48" enable-background="new 0 0 142 48" xml:space="preserve">
<path fill="#FFFFFF" d="M51.182,35.109c-0.155-0.616-0.155-1.231-0.155-2.62H50.95c-0.888,1.389-2.548,3.197-6.177,3.197
	c-4.595,0-6.989-2.465-6.912-6.432c0.078-4.696,4.402-6.622,10.734-6.622h2.317c0-1.694,0.386-4.159-2.548-4.044
	c-1.776,0.076-2.356,1.81-2.318,2.965h-6.91c-0.038-2.733,1.39-4.313,3.358-5.199c2.008-0.924,4.518-1.155,6.68-1.155
	c3.938,0,8.687,1.656,8.61,6.009v9.935c0,0.81,0.155,1.656,0.426,3.967H51.182 M47.475,31.453c3.166,0,3.437-2.967,3.437-5.546
	c-1.545,0-3.012-0.078-4.015,0.421c-1.082,0.541-1.931,1.233-1.931,2.58C44.966,30.297,46.085,31.453,47.475,31.453"/>
<path fill="#FFFFFF" d="M68.169,17.896c1.66-1.926,3.591-2.697,6.062-2.697c4.171,0,7.26,2.697,7.26,6.971v12.939h-7.338v-11.36
	c-0.075-1.886-0.539-3.929-2.817-3.929c-3.628,0-3.167,3.968-3.167,4.199v11.09h-7.335V20.746c0-1.734-0.038-2.888-0.231-4.969
	h7.452L68.169,17.896z"/>
<polygon fill="#FFFFFF" points="84.231,20.4 84.231,15.777 101.373,15.777 101.373,20.4 91.181,30.488 101.838,30.488 
	101.838,35.109 83.844,35.109 83.844,30.488 93.883,20.4 "/>
<path fill="#FFFFFF" d="M125.814,25.445c0,7.123-5.212,10.242-11.275,10.242c-6.061,0-11.272-3.119-11.272-10.242
	c0-7.126,5.213-10.246,11.272-10.246C120.603,15.199,125.814,18.319,125.814,25.445 M114.539,31.453
	c3.088,0,3.744-3.273,3.744-6.008c0-2.736-0.656-6.009-3.744-6.009c-3.089,0-3.746,3.272-3.746,6.009
	C110.793,28.18,111.45,31.453,114.539,31.453"/>
<path fill="#FFFFFF" d="M135.349,19.398h0.079c0.85-3.196,3.242-4.275,6.486-4.199V21.4c-0.54-0.04-1.042-0.04-1.546-0.04
	c-3.82,0.04-5.134,2.313-5.019,6.009v7.74h-7.334V20.744c0-1.732-0.04-2.886-0.233-4.967h7.452L135.349,19.398z"/>
<path fill="#FFFFFF" d="M2.532,41.696c0-0.146-0.025-0.275-0.103-0.361c-0.085-0.094-0.223-0.154-0.447-0.154
	c-0.242,0-0.388,0.139-0.388,0.387c0,0.318,0.663,0.302,1.688,0.619c0.517,0.163,0.869,0.481,0.869,1.186
	c0,1.142-1.077,1.435-2.066,1.435c-1.06,0-2.093-0.215-2.085-1.53h1.55c-0.025,0.13,0.018,0.275,0.112,0.387
	c0.095,0.112,0.232,0.198,0.387,0.198c0.32,0,0.552-0.12,0.552-0.395c0-0.766-2.558-0.311-2.558-1.872
	c0-1.067,1.138-1.359,1.998-1.359c1.026,0,1.973,0.269,2.042,1.461H2.532L2.532,41.696z"/>
<path fill="#FFFFFF" d="M7.21,41.181c0.688,0,0.792,0.792,0.792,1.341c0,0.55-0.104,1.34-0.792,1.34c-0.689,0-0.793-0.79-0.793-1.34
	C6.417,41.973,6.521,41.181,7.21,41.181 M6.417,40.365H4.78v5.962h1.637v-2.165h0.017c0.302,0.378,0.741,0.645,1.224,0.645
	c1.387,0,2.024-1.083,2.024-2.346c0-1.133-0.559-2.226-1.843-2.226c-0.638,0-1.077,0.231-1.404,0.74H6.418L6.417,40.365
	L6.417,40.365z"/>
<path fill="#FFFFFF" d="M11.741,41.973c0.043-0.492,0.18-0.894,0.749-0.921c0.25-0.018,0.44,0.096,0.568,0.275
	c0.129,0.181,0.199,0.412,0.199,0.646H11.741z M14.807,42.848c0-1.606-0.56-2.612-2.317-2.612c-1.301,0-2.326,0.773-2.326,2.141
	c0,1.692,0.688,2.432,2.42,2.432c0.508,0,0.99-0.096,1.369-0.336c0.414-0.239,0.767-0.645,0.817-1.203h-1.516
	c-0.06,0.403-0.344,0.618-0.8,0.618c-0.612,0-0.758-0.479-0.75-1.039H14.807L14.807,42.848z"/>
<path fill="#FFFFFF" d="M18.269,41.876c0-0.213-0.035-0.387-0.128-0.505c-0.096-0.122-0.259-0.19-0.508-0.19
	c-0.594,0-0.628,0.894-0.628,1.341c0,0.446,0.034,1.34,0.628,1.34c0.568-0.043,0.638-0.481,0.638-0.868h1.636
	c0,0.61-0.267,1.057-0.672,1.358c-0.413,0.292-0.964,0.437-1.533,0.455c-1.637,0-2.377-0.79-2.377-2.285
	c0-1.564,1.076-2.286,2.377-2.286c1.093-0.017,2.126,0.413,2.205,1.641H18.269z"/>
<path fill="#FFFFFF" d="M20.672,40.365h1.637v4.312h-1.637V40.365z M20.663,38.475h1.655v1.152h-1.655V38.475z"/>
<path fill="#FFFFFF" d="M24.608,43.295c0-0.302,0.189-0.457,0.431-0.575c0.224-0.113,0.55-0.096,0.895-0.096
	c0,0.575-0.059,1.237-0.765,1.237C24.857,43.861,24.608,43.604,24.608,43.295 M27.562,44.677c-0.06-0.515-0.094-0.703-0.094-0.884
	v-2.218c0.018-0.97-1.042-1.34-1.921-1.34c-0.481,0-1.041,0.052-1.489,0.259c-0.439,0.196-0.758,0.55-0.75,1.158h1.542
	c-0.008-0.257,0.122-0.644,0.517-0.66c0.653-0.027,0.567,0.523,0.567,0.902h-0.516c-1.413,0-2.376,0.43-2.394,1.478
	c-0.017,0.885,0.518,1.435,1.541,1.435c0.81,0,1.181-0.405,1.379-0.714h0.018c0,0.309,0,0.447,0.034,0.584H27.562z"/>
<rect x="28.458" y="38.475" fill="#FFFFFF" width="1.637" height="6.202"/>
<path fill="#FFFFFF" d="M31.154,40.365h1.636v4.312h-1.636V40.365z M31.145,38.475h1.652v1.152h-1.652V38.475z"/>
<path fill="#FFFFFF" d="M36.081,41.696c0-0.146-0.026-0.275-0.103-0.361c-0.088-0.094-0.225-0.154-0.448-0.154
	c-0.24,0-0.387,0.139-0.387,0.387c0,0.318,0.662,0.302,1.687,0.619c0.517,0.163,0.871,0.481,0.871,1.186
	c0,1.142-1.077,1.435-2.067,1.435c-1.059,0-2.093-0.215-2.084-1.53h1.55c-0.025,0.13,0.018,0.275,0.112,0.387
	c0.094,0.112,0.231,0.198,0.388,0.198c0.318,0,0.551-0.12,0.551-0.395c0-0.766-2.557-0.311-2.557-1.872
	c0-1.067,1.136-1.359,1.998-1.359c1.025,0,1.972,0.269,2.041,1.461H36.081L36.081,41.696z"/>
<path fill="#FFFFFF" d="M38.803,40.365v-0.653l1.635-0.618v1.271h0.947v1.03h-0.947v1.709c0,0.112-0.068,0.671,0.31,0.671
	c0.216,0,0.439,0,0.63-0.025v0.97c-0.371,0.069-0.639,0.087-0.88,0.087c-1.111,0-1.782-0.155-1.695-1.477v-1.935h-0.845v-1.03
	H38.803z"/>
<path fill="#FFFFFF" d="M44.348,41.696c0-0.146-0.025-0.275-0.103-0.361c-0.086-0.094-0.224-0.154-0.448-0.154
	c-0.242,0-0.388,0.139-0.388,0.387c0,0.318,0.664,0.302,1.689,0.619c0.516,0.163,0.869,0.481,0.869,1.186
	c0,1.142-1.077,1.435-2.068,1.435c-1.06,0-2.092-0.215-2.083-1.53h1.549c-0.026,0.13,0.018,0.275,0.112,0.387
	c0.095,0.112,0.233,0.198,0.388,0.198c0.319,0,0.552-0.12,0.552-0.395c0-0.766-2.558-0.311-2.558-1.872
	c0-1.067,1.137-1.359,1.998-1.359c1.025,0,1.972,0.269,2.041,1.461H44.348L44.348,41.696z"/>
<path fill="#FFFFFF" d="M49.429,40.365h1.637v4.312h-1.637V40.365z M49.422,38.475h1.652v1.152h-1.652V38.475z"/>
<path fill="#FFFFFF" d="M53.711,40.838c0.37-0.431,0.801-0.603,1.353-0.603c0.93,0,1.619,0.603,1.619,1.556v2.886h-1.637v-2.534
	c-0.017-0.42-0.121-0.875-0.628-0.875c-0.81,0-0.707,0.884-0.707,0.936v2.474h-1.637v-3.204c0-0.387-0.008-0.644-0.051-1.107h1.662
	L53.711,40.838z"/>
<path fill="#FFFFFF" d="M62.625,41.696c0-0.146-0.026-0.275-0.103-0.361c-0.087-0.094-0.224-0.154-0.448-0.154
	c-0.24,0-0.388,0.139-0.388,0.387c0,0.318,0.665,0.302,1.689,0.619c0.517,0.163,0.87,0.481,0.87,1.186
	c0,1.142-1.077,1.435-2.067,1.435c-1.06,0-2.092-0.215-2.085-1.53h1.551c-0.026,0.13,0.018,0.275,0.112,0.387
	c0.095,0.112,0.233,0.198,0.387,0.198c0.32,0,0.551-0.12,0.551-0.395c0-0.766-2.559-0.311-2.559-1.872
	c0-1.067,1.139-1.359,1.999-1.359c1.024,0,1.974,0.269,2.041,1.461H62.625L62.625,41.696z"/>
<path fill="#FFFFFF" d="M65.346,40.365v-0.653l1.636-0.618v1.271h0.948v1.03h-0.948v1.709c0,0.112-0.068,0.671,0.311,0.671
	c0.215,0,0.44,0,0.628-0.025v0.97c-0.371,0.069-0.637,0.087-0.877,0.087c-1.111,0-1.783-0.155-1.698-1.477v-1.935h-0.843v-1.03
	H65.346z"/>
<path fill="#FFFFFF" d="M69.903,43.295c0-0.302,0.189-0.457,0.43-0.575c0.225-0.113,0.552-0.096,0.896-0.096
	c0,0.575-0.06,1.237-0.766,1.237C70.153,43.861,69.903,43.604,69.903,43.295 M72.857,44.677c-0.062-0.515-0.096-0.703-0.096-0.884
	v-2.218c0.017-0.97-1.043-1.34-1.92-1.34c-0.482,0-1.042,0.052-1.49,0.259c-0.44,0.196-0.758,0.55-0.749,1.158h1.542
	c-0.01-0.257,0.12-0.644,0.516-0.66c0.655-0.027,0.569,0.523,0.569,0.902h-0.518c-1.412,0-2.377,0.43-2.394,1.478
	c-0.017,0.885,0.518,1.435,1.542,1.435c0.81,0,1.179-0.405,1.378-0.714h0.016c0,0.309,0,0.447,0.036,0.584H72.857z"/>
<path fill="#FFFFFF" d="M73.752,40.365h1.637v4.312h-1.637V40.365z M73.744,38.475h1.652v1.152h-1.652V38.475z"/>
<path fill="#FFFFFF" d="M78.033,40.838c0.37-0.431,0.8-0.603,1.352-0.603c0.931,0,1.62,0.603,1.62,1.556v2.886h-1.638v-2.534
	c-0.017-0.42-0.12-0.875-0.629-0.875c-0.809,0-0.705,0.884-0.705,0.936v2.474h-1.637v-3.204c0-0.387-0.008-0.644-0.052-1.107h1.662
	L78.033,40.838z"/>
<rect x="82.022" y="38.475" fill="#FFFFFF" width="1.635" height="6.202"/>
<path fill="#FFFFFF" d="M85.966,41.973c0.044-0.492,0.182-0.894,0.75-0.921c0.25-0.018,0.439,0.096,0.568,0.275
	c0.13,0.181,0.199,0.412,0.199,0.646H85.966z M89.032,42.848c0-1.606-0.562-2.612-2.317-2.612c-1.301,0-2.326,0.773-2.326,2.141
	c0,1.692,0.688,2.432,2.42,2.432c0.508,0,0.989-0.096,1.37-0.336c0.414-0.239,0.768-0.645,0.818-1.203h-1.516
	c-0.062,0.403-0.345,0.618-0.801,0.618c-0.612,0-0.759-0.479-0.75-1.039H89.032L89.032,42.848z"/>
<path fill="#FFFFFF" d="M92.037,41.696c0-0.146-0.026-0.275-0.103-0.361c-0.086-0.094-0.224-0.154-0.447-0.154
	c-0.242,0-0.389,0.139-0.389,0.387c0,0.318,0.664,0.302,1.688,0.619c0.517,0.163,0.869,0.481,0.869,1.186
	c0,1.142-1.076,1.435-2.067,1.435c-1.06,0-2.094-0.215-2.083-1.53h1.55c-0.025,0.13,0.016,0.275,0.111,0.387
	c0.095,0.112,0.234,0.198,0.389,0.198c0.32,0,0.551-0.12,0.551-0.395c0-0.766-2.558-0.311-2.558-1.872
	c0-1.067,1.136-1.359,1.997-1.359c1.025,0,1.975,0.269,2.042,1.461H92.037L92.037,41.696z"/>
<path fill="#FFFFFF" d="M96.653,41.696c0-0.146-0.025-0.275-0.102-0.361c-0.086-0.094-0.225-0.154-0.448-0.154
	c-0.241,0-0.389,0.139-0.389,0.387c0,0.318,0.664,0.302,1.688,0.619c0.517,0.163,0.871,0.481,0.871,1.186
	c0,1.142-1.077,1.435-2.068,1.435c-1.061,0-2.093-0.215-2.085-1.53h1.552c-0.027,0.13,0.015,0.275,0.111,0.387
	c0.096,0.112,0.233,0.198,0.388,0.198c0.32,0,0.552-0.12,0.552-0.395c0-0.766-2.561-0.311-2.561-1.872
	c0-1.067,1.138-1.359,2.001-1.359c1.023,0,1.971,0.269,2.041,1.461H96.653L96.653,41.696z"/>
<path fill="#FFFFFF" d="M102.098,44.677v-3.281h-0.811v-1.03h0.827c-0.053-1.444,0.328-1.994,1.8-1.994
	c0.294,0,0.586,0.044,0.879,0.104v1.022c-0.146-0.044-0.31-0.094-0.456-0.094c-0.552,0-0.62,0.48-0.604,0.962h1.007v1.03h-1.007
	v3.281H102.098z"/>
<path fill="#FFFFFF" d="M106.627,43.295c0-0.302,0.19-0.457,0.432-0.575c0.223-0.113,0.551-0.096,0.896-0.096
	c0,0.575-0.059,1.237-0.768,1.237C106.876,43.861,106.627,43.604,106.627,43.295 M109.582,44.677
	c-0.062-0.515-0.095-0.703-0.095-0.884v-2.218c0.017-0.97-1.042-1.34-1.922-1.34c-0.48,0-1.042,0.052-1.489,0.259
	c-0.438,0.196-0.758,0.55-0.749,1.158h1.541c-0.007-0.257,0.121-0.644,0.518-0.66c0.654-0.027,0.568,0.523,0.568,0.902h-0.518
	c-1.412,0-2.377,0.43-2.395,1.478c-0.016,0.885,0.518,1.435,1.543,1.435c0.809,0,1.18-0.405,1.378-0.714h0.017
	c0,0.309,0,0.447,0.034,0.584H109.582z"/>
<path fill="#FFFFFF" d="M112.71,41.696c0-0.146-0.027-0.275-0.104-0.361c-0.089-0.094-0.224-0.154-0.448-0.154
	c-0.241,0-0.388,0.139-0.388,0.387c0,0.318,0.662,0.302,1.688,0.619c0.517,0.163,0.871,0.481,0.871,1.186
	c0,1.142-1.077,1.435-2.067,1.435c-1.061,0-2.095-0.215-2.086-1.53h1.551c-0.025,0.13,0.017,0.275,0.113,0.387
	c0.095,0.112,0.231,0.198,0.386,0.198c0.319,0,0.551-0.12,0.551-0.395c0-0.766-2.556-0.311-2.556-1.872
	c0-1.067,1.135-1.359,1.996-1.359c1.025,0,1.974,0.269,2.042,1.461H112.71L112.71,41.696z"/>
<path fill="#FFFFFF" d="M115.43,40.365v-0.653l1.636-0.618v1.271h0.948v1.03h-0.948v1.709c0,0.112-0.066,0.671,0.311,0.671
	c0.217,0,0.438,0,0.627-0.025v0.97c-0.368,0.069-0.636,0.087-0.876,0.087c-1.111,0-1.782-0.155-1.697-1.477v-1.935h-0.845v-1.03
	H115.43z"/>
<path fill="#FFFFFF" d="M119.996,41.973c0.044-0.492,0.181-0.894,0.747-0.921c0.251-0.018,0.441,0.096,0.569,0.275
	c0.131,0.181,0.2,0.412,0.2,0.646H119.996z M123.06,42.848c0-1.606-0.559-2.612-2.316-2.612c-1.3,0-2.326,0.773-2.326,2.141
	c0,1.692,0.689,2.432,2.424,2.432c0.507,0,0.987-0.096,1.366-0.336c0.416-0.239,0.768-0.645,0.819-1.203h-1.514
	c-0.061,0.403-0.345,0.618-0.804,0.618c-0.611,0-0.756-0.479-0.748-1.039H123.06L123.06,42.848z"/>
<path fill="#FFFFFF" d="M125.422,40.838c0.371-0.431,0.799-0.603,1.352-0.603c0.929,0,1.619,0.603,1.619,1.556v2.886h-1.638v-2.534
	c-0.015-0.42-0.118-0.875-0.627-0.875c-0.81,0-0.706,0.884-0.706,0.936v2.474h-1.637v-3.204c0-0.387-0.011-0.644-0.053-1.107h1.662
	L125.422,40.838z"/>
<path fill="#FFFFFF" d="M130.657,41.973c0.043-0.492,0.18-0.894,0.751-0.921c0.251-0.018,0.438,0.096,0.567,0.275
	c0.131,0.181,0.199,0.412,0.199,0.646H130.657z M133.723,42.848c0-1.606-0.56-2.612-2.316-2.612c-1.3,0-2.325,0.773-2.325,2.141
	c0,1.692,0.689,2.432,2.42,2.432c0.51,0,0.992-0.096,1.369-0.336c0.414-0.239,0.768-0.645,0.819-1.203h-1.515
	c-0.061,0.403-0.346,0.618-0.802,0.618c-0.612,0-0.758-0.479-0.749-1.039H133.723L133.723,42.848z"/>
<path fill="#FFFFFF" d="M136.084,41.172h0.017c0.19-0.713,0.725-0.953,1.448-0.937v1.384c-0.121-0.009-0.234-0.009-0.345-0.009
	c-0.854,0.009-1.146,0.516-1.12,1.339v1.728h-1.638v-3.204c0-0.388-0.008-0.644-0.051-1.109h1.662L136.084,41.172z"/>
<path fill="#FFFFFF" d="M140.382,41.696c0-0.146-0.026-0.275-0.105-0.361c-0.085-0.094-0.222-0.154-0.447-0.154
	c-0.24,0-0.387,0.139-0.387,0.387c0,0.318,0.662,0.302,1.687,0.619c0.518,0.163,0.871,0.481,0.871,1.186
	c0,1.142-1.076,1.435-2.067,1.435c-1.06,0-2.094-0.215-2.083-1.53h1.551c-0.027,0.13,0.017,0.275,0.112,0.387
	c0.092,0.112,0.232,0.198,0.385,0.198c0.32,0,0.553-0.12,0.553-0.395c0-0.766-2.557-0.311-2.557-1.872
	c0-1.067,1.135-1.359,1.997-1.359c1.025,0,1.972,0.269,2.041,1.461H140.382L140.382,41.696z"/>
<g>
	<polygon fill="#FFFFFF" points="5.722,22.066 0.05,20.193 0.05,21.18 5.137,22.858 	"/>
	<polygon fill="#FFFFFF" points="6.104,6.839 13.146,12.026 15.976,8.198 8.933,3.011 	"/>
	<polygon fill="#FFFFFF" points="1.922,3.757 5.267,6.223 8.097,2.395 7.117,1.673 3.461,1.673 	"/>
	<polygon fill="#FFFFFF" points="3.577,24.97 4.489,23.736 0.05,22.271 0.05,22.373 	"/>
	<polygon fill="#FFFFFF" points="20.158,11.278 16.812,8.814 13.983,12.643 17.328,15.106 	"/>
	<polygon fill="#FFFFFF" points="4.65,7.057 0.468,3.975 2.168,1.673 0.05,1.673 0.05,13.278 	"/>
	<polygon fill="#FFFFFF" points="8.867,1.673 17.43,7.979 21.613,11.061 17.55,16.559 13.365,13.477 3.795,26.421 0.05,23.662 
		0.05,35.569 34.036,35.569 34.036,1.673 	"/>
	<polygon fill="#FFFFFF" points="12.528,12.861 5.487,7.673 0.05,15.025 0.05,17.024 7.608,19.518 	"/>
	<polygon fill="#FFFFFF" points="6.957,20.397 0.05,18.115 0.05,19.102 6.372,21.188 	"/>
</g>
</svg>
