<?xml version="1.0" encoding="utf-8"?>
<!-- Generator: Adobe Illustrator 16.0.0, SVG Export Plug-In . SVG Version: 6.00 Build 0)  -->
<!DOCTYPE svg PUBLIC "-//W3C//DTD SVG 1.1//EN" "http://www.w3.org/Graphics/SVG/1.1/DTD/svg11.dtd">
<svg version="1.1" id="Layer_1" xmlns="http://www.w3.org/2000/svg" xmlns:xlink="http://www.w3.org/1999/xlink" x="0px" y="0px"
	 width="263.921px" height="82.994px" viewBox="0 0 263.921 82.994" enable-background="new 0 0 263.921 82.994"
	 xml:space="preserve">
<path fill="#0083A8" d="M95.125,62.146c-0.287-1.145-0.287-2.289-0.287-4.867h-0.145c-1.65,2.578-4.735,5.94-11.481,5.94
	c-8.539,0-12.988-4.582-12.845-11.952c0.145-8.731,8.182-12.31,19.951-12.31h4.305c0-3.148,0.718-7.731-4.736-7.516
	c-3.301,0.142-4.378,3.363-4.308,5.511H72.736c-0.071-5.081,2.583-8.017,6.242-9.663c3.731-1.718,8.397-2.148,12.415-2.148
	c7.319,0,16.145,3.079,16.002,11.168v18.465c0,1.505,0.288,3.078,0.791,7.372H95.125 M88.235,55.35
	c5.885,0,6.388-5.514,6.388-10.308c-2.872,0-5.599-0.143-7.463,0.785c-2.01,1.002-3.588,2.291-3.588,4.795
	C83.572,53.2,85.653,55.35,88.235,55.35"/>
<path fill="#0083A8" d="M126.698,30.154c3.086-3.579,6.675-5.013,11.267-5.013c7.751,0,13.492,5.013,13.492,12.957v24.048H137.82
	V41.031c-0.141-3.505-1.004-7.3-5.236-7.3c-6.746,0-5.886,7.372-5.886,7.802v20.613h-13.634V35.45c0-3.222-0.071-5.368-0.43-9.233
	h13.85L126.698,30.154z"/>
<polygon fill="#0083A8" points="156.552,34.806 156.552,26.216 188.412,26.216 188.412,34.806 169.466,53.558 189.273,53.558 
	189.273,62.146 155.832,62.146 155.832,53.558 174.49,34.806 "/>
<path fill="#0083A8" d="M233.837,44.184c0,13.24-9.689,19.036-20.957,19.036c-11.264,0-20.951-5.796-20.951-19.036
	c0-13.243,9.688-19.042,20.951-19.042C224.148,25.142,233.837,30.94,233.837,44.184 M212.88,55.35c5.74,0,6.961-6.086,6.961-11.166
	c0-5.084-1.221-11.167-6.961-11.167s-6.961,6.083-6.961,11.167C205.919,49.264,207.14,55.35,212.88,55.35"/>
<path fill="#0083A8" d="M251.558,32.945h0.145c1.578-5.939,6.025-7.945,12.055-7.804v11.524c-1.002-0.071-1.936-0.071-2.871-0.071
	c-7.102,0.071-9.543,4.294-9.328,11.166v14.386h-13.633V35.448c0-3.22-0.072-5.366-0.432-9.231h13.85L251.558,32.945z"/>
<path fill="#0083A8" d="M4.706,74.388c0-0.271-0.048-0.51-0.191-0.671C4.355,73.543,4.1,73.43,3.683,73.43
	c-0.449,0-0.721,0.256-0.721,0.718c0,0.592,1.232,0.56,3.138,1.152c0.96,0.302,1.615,0.894,1.615,2.202
	c0,2.123-2.001,2.667-3.841,2.667c-1.968,0-3.889-0.4-3.875-2.844h2.881c-0.046,0.241,0.033,0.512,0.209,0.72
	c0.176,0.208,0.431,0.366,0.72,0.366c0.593,0,1.025-0.223,1.025-0.733c0-1.421-4.754-0.575-4.754-3.48
	c0-1.981,2.114-2.524,3.713-2.524c1.906,0,3.667,0.496,3.794,2.715H4.706z"/>
<path fill="#0083A8" d="M13.399,73.43c1.28,0,1.473,1.47,1.473,2.491c0,1.022-0.193,2.49-1.473,2.49c-1.28,0-1.473-1.468-1.473-2.49
	C11.926,74.899,12.119,73.43,13.399,73.43 M11.926,71.913H8.884v11.081h3.042v-4.023h0.031c0.562,0.703,1.377,1.198,2.274,1.198
	c2.577,0,3.762-2.013,3.762-4.359c0-2.107-1.039-4.137-3.425-4.137c-1.185,0-2.001,0.432-2.61,1.375h-0.031V71.913z"/>
<path fill="#0083A8" d="M21.819,74.899c0.081-0.911,0.336-1.66,1.392-1.708c0.465-0.033,0.818,0.176,1.058,0.511
	c0.24,0.335,0.368,0.766,0.368,1.197H21.819z M27.518,76.528c0-2.985-1.04-4.855-4.307-4.855c-2.417,0-4.322,1.438-4.322,3.977
	c0,3.145,1.28,4.52,4.5,4.52c0.943,0,1.839-0.177,2.544-0.623c0.768-0.447,1.424-1.198,1.519-2.236h-2.817
	c-0.111,0.751-0.64,1.149-1.488,1.149c-1.137,0-1.408-0.893-1.392-1.931H27.518z"/>
<path fill="#0083A8" d="M33.954,74.724c0-0.399-0.065-0.719-0.24-0.941c-0.177-0.225-0.48-0.353-0.944-0.353
	c-1.105,0-1.169,1.661-1.169,2.491s0.064,2.49,1.169,2.49c1.056-0.079,1.185-0.895,1.185-1.611h3.041
	c0,1.133-0.496,1.963-1.249,2.522c-0.767,0.543-1.792,0.813-2.849,0.847c-3.042,0-4.417-1.47-4.417-4.248
	c0-2.906,2-4.248,4.417-4.248c2.033-0.031,3.953,0.768,4.098,3.051H33.954z"/>
<path fill="#0083A8" d="M38.419,71.913h3.042v8.016h-3.042V71.913z M38.403,68.401h3.075v2.14h-3.075V68.401z"/>
<path fill="#0083A8" d="M45.734,77.358c0-0.559,0.352-0.847,0.801-1.069c0.417-0.208,1.022-0.176,1.663-0.176
	c0,1.068-0.11,2.298-1.423,2.298C46.199,78.411,45.734,77.933,45.734,77.358 M51.225,79.929c-0.113-0.958-0.175-1.308-0.175-1.644
	v-4.122c0.032-1.803-1.937-2.49-3.571-2.49c-0.895,0-1.936,0.097-2.767,0.48c-0.817,0.366-1.41,1.021-1.395,2.155h2.866
	c-0.016-0.479,0.226-1.197,0.961-1.23c1.215-0.049,1.054,0.975,1.054,1.678h-0.96c-2.625,0-4.417,0.798-4.449,2.746
	c-0.032,1.644,0.961,2.667,2.864,2.667c1.505,0,2.195-0.752,2.563-1.326h0.032c0,0.574,0,0.831,0.064,1.086H51.225z"/>
<rect x="52.89" y="68.401" fill="#0083A8" width="3.043" height="11.527"/>
<path fill="#0083A8" d="M57.901,71.913h3.041v8.016h-3.041V71.913z M57.886,68.401h3.071v2.14h-3.071V68.401z"/>
<path fill="#0083A8" d="M67.057,74.388c0-0.271-0.048-0.51-0.191-0.671c-0.163-0.174-0.417-0.287-0.833-0.287
	c-0.447,0-0.72,0.256-0.72,0.718c0,0.592,1.231,0.56,3.136,1.152c0.961,0.302,1.618,0.894,1.618,2.202
	c0,2.123-2.001,2.667-3.841,2.667c-1.97,0-3.892-0.4-3.875-2.844h2.88c-0.047,0.241,0.034,0.512,0.209,0.72s0.431,0.366,0.72,0.366
	c0.592,0,1.025-0.223,1.025-0.733c0-1.421-4.753-0.575-4.753-3.48c0-1.981,2.112-2.524,3.713-2.524c1.905,0,3.665,0.496,3.793,2.715
	H67.057z"/>
<path fill="#0083A8" d="M72.117,71.913V70.7l3.04-1.149v2.362h1.761v1.917h-1.761v3.177c0,0.207-0.126,1.246,0.576,1.246
	c0.401,0,0.816,0,1.171-0.049v1.804c-0.689,0.128-1.186,0.161-1.635,0.161c-2.065,0-3.313-0.288-3.152-2.746V73.83h-1.57v-1.917
	H72.117z"/>
<path fill="#0083A8" d="M82.424,74.388c0-0.271-0.048-0.51-0.191-0.671c-0.16-0.174-0.417-0.287-0.833-0.287
	c-0.449,0-0.72,0.256-0.72,0.718c0,0.592,1.233,0.56,3.138,1.152c0.959,0.302,1.616,0.894,1.616,2.202
	c0,2.123-2.002,2.667-3.843,2.667c-1.969,0-3.889-0.4-3.873-2.844h2.88c-0.048,0.241,0.032,0.512,0.208,0.72
	c0.176,0.208,0.433,0.366,0.72,0.366c0.593,0,1.026-0.223,1.026-0.733c0-1.421-4.754-0.575-4.754-3.48
	c0-1.981,2.113-2.524,3.713-2.524c1.905,0,3.666,0.496,3.794,2.715H82.424z"/>
<path fill="#0083A8" d="M91.869,71.913h3.042v8.016h-3.042V71.913z M91.854,68.401h3.071v2.14h-3.071V68.401z"/>
<path fill="#0083A8" d="M99.826,72.792c0.688-0.8,1.488-1.119,2.513-1.119c1.729,0,3.009,1.119,3.009,2.891v5.365h-3.042v-4.71
	c-0.031-0.783-0.225-1.629-1.168-1.629c-1.505,0-1.313,1.645-1.313,1.741v4.598h-3.043v-5.955c0-0.72-0.014-1.197-0.096-2.061h3.089
	L99.826,72.792z"/>
<path fill="#0083A8" d="M116.394,74.388c0-0.271-0.05-0.51-0.192-0.671c-0.161-0.174-0.416-0.287-0.832-0.287
	c-0.448,0-0.723,0.256-0.723,0.718c0,0.592,1.235,0.56,3.139,1.152c0.961,0.302,1.617,0.894,1.617,2.202
	c0,2.123-2.001,2.667-3.841,2.667c-1.969,0-3.889-0.4-3.875-2.844h2.882c-0.048,0.241,0.032,0.512,0.208,0.72
	c0.177,0.208,0.433,0.366,0.72,0.366c0.593,0,1.024-0.223,1.024-0.733c0-1.421-4.755-0.575-4.755-3.48
	c0-1.981,2.116-2.524,3.715-2.524c1.904,0,3.667,0.496,3.793,2.715H116.394z"/>
<path fill="#0083A8" d="M121.451,71.913V70.7l3.041-1.149v2.362h1.762v1.917h-1.762v3.177c0,0.207-0.126,1.246,0.577,1.246
	c0.399,0,0.817,0,1.167-0.049v1.804c-0.688,0.128-1.183,0.161-1.631,0.161c-2.065,0-3.313-0.288-3.154-2.746V73.83h-1.568v-1.917
	H121.451z"/>
<path fill="#0083A8" d="M129.919,77.358c0-0.559,0.353-0.847,0.8-1.069c0.417-0.208,1.025-0.176,1.666-0.176
	c0,1.068-0.112,2.298-1.424,2.298C130.385,78.411,129.919,77.933,129.919,77.358 M135.411,79.929
	c-0.112-0.958-0.177-1.308-0.177-1.644v-4.122c0.032-1.803-1.938-2.49-3.569-2.49c-0.896,0-1.938,0.097-2.77,0.48
	c-0.817,0.366-1.409,1.021-1.392,2.155h2.866c-0.018-0.479,0.223-1.197,0.959-1.23c1.217-0.049,1.058,0.975,1.058,1.678h-0.962
	c-2.624,0-4.418,0.798-4.449,2.746c-0.031,1.644,0.961,2.667,2.865,2.667c1.505,0,2.192-0.752,2.561-1.326h0.031
	c0,0.574,0,0.831,0.065,1.086H135.411z"/>
<path fill="#0083A8" d="M137.076,71.913h3.041v8.016h-3.041V71.913z M137.06,68.401h3.071v2.14h-3.071V68.401z"/>
<path fill="#0083A8" d="M145.031,72.792c0.689-0.8,1.489-1.119,2.514-1.119c1.729,0,3.01,1.119,3.01,2.891v5.365h-3.043v-4.71
	c-0.032-0.783-0.223-1.629-1.168-1.629c-1.505,0-1.313,1.645-1.313,1.741v4.598h-3.041v-5.955c0-0.72-0.016-1.197-0.096-2.061h3.089
	L145.031,72.792z"/>
<rect x="152.445" y="68.401" fill="#0083A8" width="3.037" height="11.527"/>
<path fill="#0083A8" d="M159.773,74.899c0.082-0.911,0.338-1.66,1.395-1.708c0.465-0.033,0.816,0.176,1.057,0.511
	s0.369,0.766,0.369,1.197H159.773z M165.474,76.528c0-2.985-1.043-4.855-4.307-4.855c-2.418,0-4.322,1.438-4.322,3.977
	c0,3.145,1.279,4.52,4.496,4.52c0.945,0,1.84-0.177,2.547-0.623c0.768-0.447,1.424-1.198,1.521-2.236h-2.816
	c-0.115,0.751-0.641,1.149-1.49,1.149c-1.137,0-1.41-0.893-1.393-1.931H165.474z"/>
<path fill="#0083A8" d="M171.06,74.388c0-0.271-0.049-0.51-0.193-0.671c-0.158-0.174-0.416-0.287-0.832-0.287
	c-0.449,0-0.721,0.256-0.721,0.718c0,0.592,1.234,0.56,3.137,1.152c0.961,0.302,1.617,0.894,1.617,2.202
	c0,2.123-2,2.667-3.842,2.667c-1.969,0-3.891-0.4-3.873-2.844h2.881c-0.047,0.241,0.031,0.512,0.207,0.72s0.434,0.366,0.723,0.366
	c0.594,0,1.023-0.223,1.023-0.733c0-1.421-4.752-0.575-4.752-3.48c0-1.981,2.111-2.524,3.711-2.524c1.906,0,3.668,0.496,3.795,2.715
	H171.06z"/>
<path fill="#0083A8" d="M179.64,74.388c0-0.271-0.049-0.51-0.191-0.671c-0.16-0.174-0.418-0.287-0.834-0.287
	c-0.447,0-0.721,0.256-0.721,0.718c0,0.592,1.234,0.56,3.139,1.152c0.959,0.302,1.617,0.894,1.617,2.202
	c0,2.123-2.002,2.667-3.842,2.667c-1.971,0-3.891-0.4-3.875-2.844h2.881c-0.047,0.241,0.031,0.512,0.209,0.72
	c0.176,0.208,0.432,0.366,0.719,0.366c0.596,0,1.027-0.223,1.027-0.733c0-1.421-4.758-0.575-4.758-3.48
	c0-1.981,2.115-2.524,3.717-2.524c1.904,0,3.664,0.496,3.793,2.715H179.64z"/>
<path fill="#0083A8" d="M189.757,79.929V73.83h-1.506v-1.917h1.537c-0.098-2.683,0.609-3.704,3.346-3.704
	c0.545,0,1.088,0.081,1.633,0.192V70.3c-0.273-0.08-0.576-0.175-0.848-0.175c-1.025,0-1.152,0.895-1.121,1.788h1.871v1.917h-1.871
	v6.099H189.757z"/>
<path fill="#0083A8" d="M198.175,77.358c0-0.559,0.352-0.847,0.803-1.069c0.414-0.208,1.023-0.176,1.664-0.176
	c0,1.068-0.111,2.298-1.426,2.298C198.64,78.411,198.175,77.933,198.175,77.358 M203.667,79.929
	c-0.113-0.958-0.176-1.308-0.176-1.644v-4.122c0.031-1.803-1.938-2.49-3.57-2.49c-0.895,0-1.938,0.097-2.77,0.48
	c-0.814,0.366-1.408,1.021-1.393,2.155h2.865c-0.014-0.479,0.225-1.197,0.961-1.23c1.217-0.049,1.057,0.975,1.057,1.678h-0.961
	c-2.625,0-4.418,0.798-4.451,2.746c-0.029,1.644,0.963,2.667,2.867,2.667c1.504,0,2.193-0.752,2.561-1.326h0.031
	c0,0.574,0,0.831,0.064,1.086H203.667z"/>
<path fill="#0083A8" d="M209.478,74.388c0-0.271-0.049-0.51-0.191-0.671c-0.162-0.174-0.416-0.287-0.832-0.287
	c-0.449,0-0.721,0.256-0.721,0.718c0,0.592,1.232,0.56,3.137,1.152c0.959,0.302,1.617,0.894,1.617,2.202
	c0,2.123-2.002,2.667-3.842,2.667c-1.969,0-3.891-0.4-3.875-2.844h2.881c-0.047,0.241,0.033,0.512,0.211,0.72
	c0.176,0.208,0.43,0.366,0.719,0.366c0.592,0,1.023-0.223,1.023-0.733c0-1.421-4.752-0.575-4.752-3.48
	c0-1.981,2.111-2.524,3.711-2.524c1.906,0,3.668,0.496,3.795,2.715H209.478z"/>
<path fill="#0083A8" d="M214.537,71.913V70.7l3.041-1.149v2.362h1.762v1.917h-1.762v3.177c0,0.207-0.127,1.246,0.576,1.246
	c0.4,0,0.816,0,1.168-0.049v1.804c-0.688,0.128-1.184,0.161-1.631,0.161c-2.066,0-3.313-0.288-3.154-2.746V73.83h-1.568v-1.917
	H214.537z"/>
<path fill="#0083A8" d="M223.021,74.899c0.082-0.911,0.336-1.66,1.391-1.708c0.465-0.033,0.818,0.176,1.057,0.511
	c0.242,0.335,0.371,0.766,0.371,1.197H223.021z M228.718,76.528c0-2.985-1.039-4.855-4.307-4.855c-2.414,0-4.32,1.438-4.32,3.977
	c0,3.145,1.279,4.52,4.5,4.52c0.943,0,1.838-0.177,2.543-0.623c0.77-0.447,1.424-1.198,1.52-2.236h-2.814
	c-0.113,0.751-0.641,1.149-1.49,1.149c-1.137,0-1.408-0.893-1.393-1.931H228.718z"/>
<path fill="#0083A8" d="M233.107,72.792c0.688-0.8,1.486-1.119,2.51-1.119c1.73,0,3.012,1.119,3.012,2.891v5.365h-3.043v-4.71
	c-0.031-0.783-0.221-1.629-1.168-1.629c-1.504,0-1.311,1.645-1.311,1.741v4.598h-3.043v-5.955c0-0.72-0.016-1.197-0.096-2.061h3.088
	L233.107,72.792z"/>
<path fill="#0083A8" d="M242.837,74.899c0.082-0.911,0.336-1.66,1.395-1.708c0.465-0.033,0.816,0.176,1.055,0.511
	c0.242,0.335,0.371,0.766,0.371,1.197H242.837z M248.537,76.528c0-2.985-1.041-4.855-4.305-4.855c-2.418,0-4.322,1.438-4.322,3.977
	c0,3.145,1.279,4.52,4.498,4.52c0.945,0,1.842-0.177,2.545-0.623c0.77-0.447,1.424-1.198,1.52-2.236h-2.814
	c-0.113,0.751-0.643,1.149-1.492,1.149c-1.135,0-1.406-0.893-1.391-1.931H248.537z"/>
<path fill="#0083A8" d="M252.923,73.414h0.031c0.354-1.325,1.346-1.772,2.691-1.741v2.572c-0.227-0.017-0.434-0.017-0.641-0.017
	c-1.586,0.017-2.129,0.958-2.082,2.489v3.211h-3.043v-5.955c0-0.72-0.016-1.197-0.096-2.061h3.092L252.923,73.414z"/>
<path fill="#0083A8" d="M260.912,74.388c0-0.271-0.049-0.51-0.193-0.671c-0.16-0.174-0.416-0.287-0.832-0.287
	c-0.449,0-0.719,0.256-0.719,0.718c0,0.592,1.23,0.56,3.135,1.152c0.961,0.302,1.619,0.894,1.619,2.202
	c0,2.123-2.002,2.667-3.844,2.667c-1.969,0-3.891-0.4-3.873-2.844h2.883c-0.049,0.241,0.031,0.512,0.209,0.72
	c0.172,0.208,0.432,0.366,0.717,0.366c0.592,0,1.025-0.223,1.025-0.733c0-1.421-4.752-0.575-4.752-3.48
	c0-1.981,2.111-2.524,3.713-2.524c1.904,0,3.664,0.496,3.793,2.715H260.912z"/>
<g>
	<polygon fill="#0083A8" points="10.633,37.904 0.092,34.424 0.092,36.255 9.547,39.376 	"/>
	<polygon fill="#0083A8" points="11.343,9.602 24.431,19.242 29.691,12.129 16.602,2.489 	"/>
	<polygon fill="#0083A8" points="3.571,3.873 9.788,8.456 15.048,1.342 13.227,0 6.434,0 	"/>
	<polygon fill="#0083A8" points="6.646,43.3 8.341,41.01 0.092,38.285 0.092,38.474 	"/>
	<polygon fill="#0083A8" points="37.465,17.855 31.245,13.273 25.987,20.388 32.206,24.969 	"/>
	<polygon fill="#0083A8" points="8.642,10.007 0.868,4.278 4.029,0 0.092,0 0.092,21.572 	"/>
	<polygon fill="#0083A8" points="16.479,0 32.394,11.721 40.169,17.449 32.618,27.667 24.838,21.938 7.051,45.997 0.092,40.871 
		0.092,63 63.256,63 63.256,0 	"/>
	<polygon fill="#0083A8" points="23.283,20.795 10.196,11.153 0.092,24.818 0.092,28.532 14.139,33.167 	"/>
	<polygon fill="#0083A8" points="12.928,34.801 0.092,30.561 0.092,32.395 11.841,36.273 	"/>
</g>
</svg>
